<svg width="164" height="55" viewBox="0 0 164 55" fill="none" xmlns="http://www.w3.org/2000/svg">
<g clip-path="url(#clip0_202_21)">
<path d="M37.4299 15.0999C34.9966 13.8552 32.2925 13.2333 29.5599 13.2899C26.8241 13.2333 24.1168 13.8552 21.6799 15.0999C19.4707 16.249 17.6483 18.0226 16.4399 20.1999C15.1706 22.5501 14.5332 25.1895 14.5899 27.8599C14.5332 30.5303 15.1706 33.1698 16.4399 35.5199C17.6512 37.6951 19.4728 39.468 21.6799 40.6199C24.1177 41.8612 26.8249 42.4796 29.5599 42.4199C32.2917 42.4796 34.9957 41.8612 37.4299 40.6199C39.6391 39.4709 41.4615 37.6972 42.6699 35.5199C43.9392 33.1698 44.5766 30.5303 44.5199 27.8599C44.5766 25.1895 43.9392 22.5501 42.6699 20.1999C41.4643 18.0204 39.6412 16.2461 37.4299 15.0999ZM36.9999 32.4599C36.3219 33.7574 35.2791 34.828 33.9999 35.5399C32.648 36.2855 31.1234 36.6615 29.5799 36.6299C28.0393 36.664 26.5173 36.2878 25.1699 35.5399C23.8911 34.8276 22.8484 33.757 22.1699 32.4599C21.4455 31.0368 21.0847 29.4564 21.1199 27.8599C21.0847 26.2634 21.4455 24.683 22.1699 23.2599C22.8484 21.9628 23.8911 20.8923 25.1699 20.1799C26.5173 19.432 28.0393 19.0558 29.5799 19.0899C31.1234 19.0583 32.648 19.4343 33.9999 20.1799C35.2791 20.8918 36.3219 21.9625 36.9999 23.2599C37.7071 24.6875 38.0506 26.2676 37.9999 27.8599C38.0506 29.4522 37.7071 31.0324 36.9999 32.4599Z" fill="#141414"/>
<path d="M67.3 13.97V23.81L67.38 31.23L54.8 13.97H48.96V41.75H52.08L55.43 39.6V32.07L55.35 24.57L62.86 34.82L73.77 27.81V13.97H67.3Z" fill="#141414"/>
<path d="M85.29 15.1C83.0834 16.2492 81.2643 18.0231 80.06 20.2C79.267 21.6303 78.7258 23.1863 78.46 24.8L96 13.5C95.0494 13.3625 94.0904 13.2923 93.13 13.29C90.4077 13.2413 87.7153 13.8629 85.29 15.1Z" fill="#141414"/>
<path d="M150.24 41.75L142.38 32C144.246 31.4634 145.885 30.3329 147.05 28.78C148.17 27.1913 148.745 25.2829 148.69 23.34C148.723 21.62 148.299 19.9221 147.46 18.42C146.651 17.0129 145.448 15.8729 144 15.14C142.348 14.3359 140.526 13.9447 138.69 14H133L133.89 19.55H137.98C139.132 19.4665 140.272 19.824 141.17 20.55C141.557 20.9208 141.858 21.3714 142.054 21.8705C142.249 22.3695 142.333 22.9051 142.3 23.44C142.334 23.9717 142.252 24.5045 142.061 25.0017C141.869 25.4988 141.572 25.9486 141.19 26.32C140.285 27.0482 139.138 27.4057 137.98 27.32H135.13L136.13 33.32L142.57 41.69L150.24 41.75Z" fill="#141414"/>
<path d="M5.67 49.25V5.67H108.22L117.05 0H0V54.92H31.59L40.41 49.25H5.67Z" fill="#141414"/>
<path d="M163.4 0H130.73L131.64 5.67H157.73V49.25H138.59L139.49 54.92H163.4V0Z" fill="#141414"/>
<path d="M55.4301 41.7501V39.6001L52.0801 41.7501H55.4301Z" fill="#FFB5B5"/>
<path d="M67.9301 41.7501H73.7701V27.8101L62.8601 34.8201L67.9301 41.7501Z" fill="#FFB5B5"/>
<path d="M78.21 27.86C78.1533 30.5304 78.7908 33.1698 80.06 35.52C81.2672 37.6948 83.0855 39.4679 85.29 40.62C87.748 41.8046 90.4415 42.4198 93.17 42.4198C95.8986 42.4198 98.592 41.8046 101.05 40.62C103.257 39.4681 105.079 37.6951 106.29 35.52C107.556 33.1691 108.19 30.5296 108.13 27.86C108.19 25.1904 107.556 22.551 106.29 20.2C105.082 18.0227 103.259 16.2491 101.05 15.1C99.4871 14.2848 97.7959 13.7436 96.05 13.5L78.46 24.8C78.2933 25.8115 78.2097 26.8349 78.21 27.86ZM85.81 23.26C86.4885 21.9629 87.5312 20.8924 88.81 20.18C90.1543 19.4333 91.6727 19.0572 93.21 19.09C94.7567 19.0585 96.2845 19.4344 97.64 20.18C98.9203 20.8905 99.9635 21.9615 100.64 23.26C101.364 24.6831 101.725 26.2635 101.69 27.86C101.725 29.4565 101.364 31.0369 100.64 32.46C99.9635 33.7585 98.9203 34.8295 97.64 35.54C96.2845 36.2856 94.7567 36.6615 93.21 36.63C91.6727 36.6628 90.1543 36.2867 88.81 35.54C87.5312 34.8277 86.4885 33.7571 85.81 32.46C85.1029 31.0324 84.7593 29.4523 84.81 27.86C84.7593 26.2677 85.1029 24.6876 85.81 23.26Z" fill="#FFB5B5"/>
<path d="M119.09 13.97H112.58V41.75H119.09V13.97Z" fill="#FFB5B5"/>
<path d="M131.63 27.34V19.52H133.85L132.96 13.97H125.16V41.75H131.67V32.58H135.44L136.06 33.38L135.09 27.34H131.63Z" fill="#FFB5B5"/>
<path d="M40.4101 49.25L31.5901 54.92H139.49L138.59 49.25H40.4101Z" fill="#FFB5B5"/>
<path d="M131.64 5.67L130.73 0H117.05L108.22 5.67H131.64Z" fill="#FFB5B5"/>
</g>
<defs>
<clipPath id="clip0_202_21">
<rect width="163.4" height="54.92" fill="white"/>
</clipPath>
</defs>
</svg>
